<?xml version="1.0" encoding="utf-8"?>
<!-- Generator: Adobe Illustrator 16.0.0, SVG Export Plug-In . SVG Version: 6.00 Build 0)  -->
<!DOCTYPE svg PUBLIC "-//W3C//DTD SVG 1.1//EN" "http://www.w3.org/Graphics/SVG/1.1/DTD/svg11.dtd">
<svg version="1.1" id="Layer_1" xmlns="http://www.w3.org/2000/svg" xmlns:xlink="http://www.w3.org/1999/xlink" x="0px" y="0px"
	 width="190px" height="90px" viewBox="0 0 190 90" enable-background="new 0 0 190 90" xml:space="preserve">
<g>
	<path fill="#b22222" d="M25.938,61.062c0,0,4.695-0.215,8.925-0.861c0.257,12.971,0.552,27.26,0.439,28.033
		c-0.112,0.768-8.347,2.064-9.077,1.402C26.149,76.559,25.938,61.062,25.938,61.062z"/>
	<path fill="#b22222" d="M56.466,20.878c0.526-0.551,8.923-2.082,8.923-2.082s0.989,12.334,0.447,23.955
		c-0.167,3.586-0.182,6.456-0.182,6.456s3.614-0.57,7.79-2.166c0.421,0.602,1.048,6.537,0.531,7.186
		c-0.516,0.645-6.058,2.574-17.028,3.967C56.419,54.66,57.894,32.534,56.466,20.878z"/>
	<path fill="#b22222" d="M77.16,16.98c0.301,5.275,0.977,12.329,1.128,22.893c0.15,10.563-0.075,14.428-0.075,14.428
		s15.404-2.238,17.96-3.438c-0.227-5.292-1.203-6.895-1.203-6.895s-7.289,2.446-8.867,2.108c0.075-2.472-0.075-7.227-0.075-7.227
		s6.011-1.674,6.988-2.667c-0.075-2.241-1.954-5.874-1.954-5.874l-5.035,2.323c0,0-0.076-9.004-0.301-10.468
		c7.29-1.628,9.92-1.954,9.92-1.954l-0.15-7.08C95.496,13.132,81.668,15.57,77.16,16.98z"/>
	<path fill="#b22222" d="M100.231,13.527c0.075,4.29,0.149,6.737,0.226,14.443c0.075,7.707-0.15,14.168-0.076,22.287
		c0.527,0.248,6.313-1.115,8.417-1.826c0.451-8.963-0.3-16.003-0.226-19.91c0.527,2.503,1.201,3.271,9.32,19.604
		c2.778-0.422,5.935-1.389,7.212-2.571c-0.226-14.102,1.128-36.816,1.128-36.816l-8.115,1.089c0,0-0.602,19.781,0.074,23.147
		c-0.752-3.967-3.156-7.847-9.92-21.958C107.293,10.71,100.682,12.697,100.231,13.527z"/>
	<path fill="#b22222" d="M131.117,8.764c0.075,4.291-0.149,10.548-0.076,18.254c0.076,7.707-0.301,10.916-0.676,18.634
		c0.526,0.249,6.312-1.113,8.415-1.826c0.452-8.96,0.229-17.803,0.302-21.709c0.525,2.503,1.203,4.296,9.318,20.627
		c2.33-1.025,5.336-1.554,6.613-2.736c-0.226-14.103,1.653-35.954,1.653-35.954l-8.116,1.091c0,0-0.826,18.59-0.15,21.956
		c-0.751-3.967-2.479-6.737-9.244-20.846C138.179,5.948,131.567,7.933,131.117,8.764z"/>
	<path fill="#b22222" d="M160.048,5.302c0.489-1.178,7.704-3.578,7.704-3.578s7.214,27.627,6.763,30.883
		c3.344-15.074,6.952-32.311,6.952-32.311s6.649-0.558,8.341,0.784c-6.99,29.312-14.516,55.282-17.811,62.987
		c-2.481,0.541-7.438-0.736-7.438-0.736s6.762-17.793,8.492-26.981c-1.241,0.731-4.512,1.82-5.638,1.609
		C165.721,29.545,163.43,20.488,160.048,5.302z"/>
	<path fill="#b22222" d="M37.623,23.851c-5.866,1.086-13.039,4.46-13.039,4.46c0.751,8.872,1.201,22.537,1.201,22.537
		s4.929-0.525,8.991-1.07c-0.196-6.245-0.262-13.595-0.648-17.195c5.813-2.028,10.493,1.066,10.493,8.444
		c0,5.575-1.882,9.12-9.625,10.049C18.837,53.012,0.191,54.109,0.191,68.334c0,12.547,13.596,14.377,24.741,13.771
		c0,0-0.061-1.252-0.186-2.371c-9.474-0.096-19.07-1.498-19.07-10.705c0-8.844,20.242-8.941,29.401-10.141
		c9.158-1.193,18.61-5.865,18.61-20.664C53.688,25.9,43.87,22.691,37.623,23.851z"/>
</g>
</svg>
