<?xml version="1.0" standalone="no"?>
<!DOCTYPE svg PUBLIC "-//W3C//DTD SVG 20010904//EN"
 "http://www.w3.org/TR/2001/REC-SVG-20010904/DTD/svg10.dtd">
<svg version="1.0" xmlns="http://www.w3.org/2000/svg"
 width="1120.000000pt" height="1120.000000pt" viewBox="0 0 1120.000000 1120.000000"
 preserveAspectRatio="xMidYMid meet">
<metadata>
Created by potrace 1.11, written by Peter Selinger 2001-2013
</metadata>
<g transform="translate(0.000000,1120.000000) scale(0.100000,-0.100000)"
fill="#000000" stroke="none">
<path d="M7558 10934 c-2 -1 -30 -5 -63 -8 -110 -10 -148 -16 -315 -53 -14 -3
-32 -6 -40 -7 -9 -1 -21 -5 -28 -10 -6 -4 -12 -5 -12 -2 0 3 -12 1 -26 -5 -15
-5 -43 -12 -63 -15 -20 -3 -43 -9 -51 -14 -8 -4 -33 -11 -55 -15 -22 -5 -42
-9 -45 -10 -3 -1 -25 -7 -50 -13 -25 -7 -53 -17 -62 -22 -10 -6 -25 -10 -33
-10 -9 0 -125 -36 -258 -81 -133 -44 -247 -82 -253 -83 -7 -1 -19 -8 -28 -15
-9 -7 -16 -11 -16 -8 0 3 -28 -6 -62 -20 -35 -13 -67 -26 -73 -27 -21 -6 -208
-79 -260 -101 -16 -8 -55 -23 -85 -35 -30 -12 -68 -28 -85 -35 -16 -8 -70 -30
-120 -51 -49 -21 -92 -40 -95 -43 -3 -3 -12 -7 -20 -9 -8 -2 -32 -12 -52 -22
-21 -11 -38 -17 -38 -14 0 2 -6 -1 -13 -8 -8 -7 -12 -24 -11 -38 2 -14 6 -65
10 -115 3 -49 7 -110 9 -135 2 -25 6 -81 10 -125 3 -44 8 -109 10 -145 2 -36
7 -101 10 -145 12 -172 16 -243 20 -320 2 -44 6 -114 9 -155 3 -41 8 -127 11
-190 3 -63 8 -151 10 -195 9 -156 16 -291 20 -375 2 -47 6 -137 10 -200 3 -63
7 -162 10 -220 3 -58 7 -157 10 -220 3 -63 7 -176 10 -250 3 -74 7 -178 9
-230 8 -157 19 -441 19 -497 0 -47 4 -56 27 -55 14 1 139 13 165 17 70 9 142
17 175 20 19 2 60 6 90 10 30 3 75 9 100 12 25 2 56 6 70 8 14 1 52 6 85 9 33
4 69 9 80 11 11 2 52 7 90 11 39 3 79 8 90 10 11 3 45 7 75 9 30 3 65 7 78 10
13 2 50 7 83 10 33 4 68 8 78 10 10 2 42 6 72 10 66 8 91 14 85 23 -2 4 -7
129 -11 277 -3 149 -8 351 -11 450 -2 99 -6 253 -8 341 -2 89 -6 167 -10 172
-3 6 -2 13 4 17 6 4 8 11 5 16 -4 5 -8 95 -10 201 -3 106 -7 246 -10 313 -2
66 -7 185 -11 265 -3 80 -7 183 -9 230 -2 47 -5 85 -5 85 -1 0 -3 32 -5 70 -3
81 -14 219 -20 255 -6 32 2 56 18 58 20 2 41 7 52 14 6 3 51 15 100 26 81 19
116 25 220 38 124 16 373 -2 455 -34 21 -7 21 -8 55 -17 55 -14 199 -88 265
-136 66 -47 196 -178 228 -227 9 -15 19 -29 23 -32 3 -3 14 -21 25 -40 10 -19
27 -46 36 -59 10 -13 15 -27 13 -31 -3 -5 -1 -11 5 -15 20 -12 114 -261 105
-276 -4 -5 -1 -9 6 -9 7 0 10 -3 7 -6 -3 -3 0 -29 8 -57 18 -72 33 -166 38
-242 1 -11 4 -24 7 -30 7 -12 3 -458 -4 -525 -7 -66 -18 -143 -22 -160 -2 -8
-7 -31 -10 -50 -3 -19 -15 -69 -26 -110 -12 -41 -22 -79 -23 -85 -1 -5 -10
-27 -19 -49 -9 -21 -17 -41 -17 -44 0 -13 -76 -153 -113 -206 -53 -78 -196
-220 -272 -271 -33 -22 -61 -43 -63 -47 -2 -5 -7 -8 -12 -8 -4 0 -34 -15 -67
-33 -66 -37 -185 -89 -194 -85 -3 2 -12 -2 -20 -8 -24 -19 -280 -94 -377 -110
-15 -2 -49 -9 -77 -14 -62 -11 -119 -20 -165 -25 -19 -3 -48 -6 -65 -9 -16 -2
-59 -7 -95 -11 -83 -8 -126 -13 -170 -19 -35 -5 -68 -9 -185 -21 -33 -4 -71
-9 -85 -11 -14 -2 -52 -6 -85 -10 -33 -3 -71 -7 -85 -10 -14 -2 -54 -6 -90 -9
-36 -4 -72 -8 -80 -10 -8 -2 -46 -7 -85 -10 -38 -4 -77 -8 -85 -10 -8 -2 -42
-7 -75 -10 -78 -8 -116 -15 -127 -21 -4 -3 -8 0 -8 7 0 8 -4 8 -12 2 -7 -6
-21 -9 -30 -8 -10 2 -20 -1 -24 -6 -3 -5 -9 -7 -13 -4 -5 2 -59 -3 -122 -11
-63 -8 -127 -17 -144 -19 -16 -2 -50 -7 -75 -11 -25 -3 -60 -8 -79 -10 -19 -2
-50 -6 -70 -9 -53 -9 -70 -12 -136 -20 -33 -4 -63 -9 -66 -11 -3 -1 -28 -6
-55 -9 -27 -3 -61 -8 -76 -11 -15 -3 -39 -7 -55 -9 -15 -2 -38 -6 -50 -9 -26
-5 -112 -19 -133 -21 -9 0 -21 -4 -28 -9 -6 -4 -16 -4 -22 -1 -6 3 -15 3 -22
-1 -7 -4 -25 -9 -42 -11 -28 -3 -45 -6 -96 -18 -14 -3 -38 -8 -55 -10 -16 -3
-37 -8 -45 -10 -8 -2 -28 -7 -45 -10 -16 -2 -40 -7 -53 -10 -51 -12 -61 -14
-93 -19 -19 -3 -49 -10 -67 -15 -18 -5 -36 -10 -40 -11 -22 -3 -216 -51 -312
-76 -30 -8 -73 -19 -94 -25 -42 -11 -161 -47 -186 -56 -20 -8 -21 -9 -55 -18
-16 -4 -34 -10 -40 -14 -5 -3 -15 -6 -21 -7 -54 -8 -530 -203 -594 -244 -8 -5
-35 -19 -60 -31 -270 -135 -557 -355 -735 -564 -22 -25 -48 -55 -57 -66 -10
-10 -18 -23 -18 -28 0 -5 -4 -11 -9 -13 -11 -4 -159 -233 -166 -258 -1 -3 -7
-18 -13 -33 -7 -16 -12 -33 -12 -38 0 -5 -4 -9 -10 -9 -5 0 -10 -4 -10 -9 0
-5 -5 -22 -12 -38 -6 -15 -12 -30 -13 -33 -1 -3 -5 -14 -9 -25 -22 -58 -36
-95 -35 -98 0 -1 -2 -9 -5 -17 -3 -8 -10 -35 -16 -60 -6 -25 -13 -56 -17 -70
-3 -14 -7 -32 -8 -40 -1 -8 -5 -26 -9 -40 -4 -14 -9 -43 -11 -65 -3 -22 -8
-65 -11 -95 -8 -61 -10 -397 -3 -502 2 -38 8 -68 12 -68 5 0 6 -4 3 -9 -3 -5
-1 -31 4 -57 6 -27 12 -62 15 -79 5 -38 9 -56 29 -130 9 -33 19 -67 21 -75 34
-127 128 -323 226 -467 81 -121 96 -140 209 -254 130 -131 209 -192 455 -346
21 -13 246 -127 255 -128 3 -1 22 -9 44 -18 21 -9 44 -17 50 -17 7 0 16 -4 21
-9 9 -7 210 -80 239 -85 6 -2 43 -12 81 -24 39 -11 104 -28 145 -38 41 -9 81
-18 88 -20 7 -2 16 -4 20 -5 4 -1 23 -6 42 -11 19 -5 46 -11 60 -13 14 -2 66
-11 115 -20 113 -20 138 -24 201 -30 28 -3 62 -8 75 -11 22 -5 70 -10 164 -18
22 -2 67 -6 100 -10 96 -9 213 -18 310 -21 112 -5 690 -5 765 -1 30 2 88 5
127 6 l72 3 -6 91 c-3 50 -7 112 -7 138 -1 27 -3 48 -6 48 -3 0 -6 23 -6 51
l0 52 -165 3 c-305 6 -647 26 -668 39 -6 3 -11 1 -11 -5 0 -6 -4 -8 -10 -5 -9
6 -24 8 -135 20 -33 3 -71 8 -85 10 -54 9 -127 18 -165 21 -22 1 -40 3 -40 4
0 2 -36 9 -85 16 -25 3 -48 8 -51 10 -4 2 -24 6 -44 10 -21 3 -47 8 -59 11
-11 2 -37 7 -56 9 -19 3 -40 10 -47 16 -7 6 -13 8 -13 5 0 -12 -244 61 -400
120 -83 31 -350 163 -350 173 0 4 -8 10 -17 14 -18 6 -54 27 -63 36 -3 3 -32
27 -65 52 -62 47 -148 128 -200 189 -45 52 -95 117 -95 123 0 3 -12 22 -26 43
-24 36 -112 215 -119 243 0 3 -9 32 -19 65 -11 33 -20 67 -21 75 -1 8 -5 31
-10 50 -5 19 -9 42 -10 50 -1 8 -5 31 -9 50 -3 19 -8 65 -11 102 -2 37 -6 72
-10 78 -3 5 -1 10 5 10 6 0 8 5 4 11 -7 11 -7 129 0 166 2 10 7 38 11 63 31
193 153 381 350 542 33 27 66 53 73 59 30 25 143 91 222 131 47 24 87 46 88
51 2 4 8 7 13 7 5 0 55 20 112 44 249 106 612 210 997 285 147 28 175 34 253
46 17 3 39 8 47 10 8 2 40 7 70 10 30 4 57 8 60 10 3 2 33 7 65 10 33 4 69 9
80 11 11 3 38 6 60 9 22 3 56 7 75 10 19 3 55 7 80 10 25 3 56 7 70 10 26 5
88 12 180 21 30 3 66 7 80 9 14 1 59 6 100 10 41 4 84 9 95 11 11 2 49 6 85 9
36 3 81 7 100 10 19 2 67 7 105 10 39 3 86 7 105 10 19 2 62 7 95 10 33 3 72
8 88 9 15 2 27 -2 27 -8 0 -8 3 -7 8 1 4 6 43 14 87 18 133 10 168 13 225 20
58 6 88 9 210 20 41 4 86 9 100 10 14 2 47 6 73 9 26 3 53 8 59 12 7 5 8 3 3
-6 -5 -8 -4 -11 2 -7 10 7 59 16 108 22 56 6 148 17 159 20 19 3 110 18 131
21 11 1 20 3 20 4 0 1 11 3 25 5 33 6 65 13 65 15 0 1 14 3 30 4 17 2 48 8 70
14 22 6 51 13 65 16 83 16 260 66 361 100 54 19 100 31 103 28 3 -3 6 1 6 8 0
7 3 10 6 7 4 -3 16 -1 28 5 11 7 26 13 32 14 63 11 505 226 555 270 8 8 19 14
23 14 12 0 192 125 271 189 117 94 272 243 350 336 22 27 46 54 53 61 6 7 12
17 12 23 0 6 4 11 9 11 8 0 144 190 175 245 9 17 32 57 52 90 75 131 211 443
229 527 4 18 12 39 17 46 6 6 8 12 5 12 -3 0 2 21 10 48 8 26 16 54 18 62 2 8
11 44 20 80 9 36 18 76 21 90 2 14 7 36 11 50 3 14 7 32 8 40 6 41 16 98 21
120 3 14 7 43 9 64 2 22 6 60 10 85 3 25 8 69 11 96 2 28 7 70 10 95 2 25 7
119 9 210 3 91 5 167 6 170 3 19 -9 283 -16 338 -3 23 -7 61 -10 85 -32 291
-125 599 -257 847 -53 99 -125 213 -140 218 -4 2 -8 9 -8 16 0 7 -8 21 -17 32
-10 10 -38 44 -63 74 -56 69 -190 203 -255 255 -28 22 -51 43 -53 47 -2 5 -10
8 -18 8 -8 0 -14 5 -14 10 0 6 -6 10 -14 10 -8 0 -16 4 -18 8 -4 12 -95 72
-107 72 -6 0 -11 4 -11 8 0 13 -255 138 -361 177 -48 18 -229 72 -263 80 -12
2 -32 7 -46 10 -67 15 -130 26 -175 30 -27 3 -61 7 -75 11 -25 6 -417 14 -422
8z"/>
<path d="M6820 5079 c-30 -5 -75 -11 -100 -14 -25 -3 -58 -8 -75 -10 -16 -3
-50 -7 -75 -10 -25 -3 -58 -7 -75 -9 -44 -5 -144 -16 -195 -21 -25 -3 -67 -7
-95 -10 -27 -3 -79 -7 -115 -10 -36 -3 -90 -7 -120 -10 -30 -3 -91 -7 -135
-10 -44 -3 -111 -8 -150 -11 -70 -6 -145 -11 -198 -13 l-27 -1 5 -422 c14
-1125 23 -1960 30 -2726 2 -315 7 -577 10 -582 3 -5 1 -11 -5 -15 -6 -4 -8
-11 -4 -16 3 -6 7 -190 8 -410 2 -386 2 -401 21 -412 23 -14 333 -16 435 -3
36 5 76 10 90 11 14 2 48 6 75 10 28 4 61 8 75 10 49 6 116 17 215 35 55 11
112 21 127 24 26 4 191 43 213 50 6 2 13 4 17 5 23 4 140 52 161 65 16 11 25
27 26 49 1 17 3 50 4 72 2 22 -1 48 -5 58 -5 9 -5 17 -1 17 10 0 9 162 -1 178
-4 7 -3 12 1 12 10 0 10 47 0 56 -3 3 -2 16 2 28 5 11 5 30 1 41 -4 11 -4 32
1 47 4 14 5 29 3 31 -3 3 -7 159 -9 348 -3 189 -7 459 -10 599 -8 415 -15 818
-20 1088 -2 139 -7 257 -10 262 -3 6 -1 10 5 10 6 0 8 5 5 10 -3 6 -8 110 -10
233 -2 122 -7 350 -10 507 -11 544 -13 656 -14 763 -1 59 -4 106 -8 106 -5 -1
-33 -5 -63 -10z"/>
</g>
</svg>
