<?xml version="1.0" standalone="no"?>
<!DOCTYPE svg PUBLIC "-//W3C//DTD SVG 20010904//EN"
 "http://www.w3.org/TR/2001/REC-SVG-20010904/DTD/svg10.dtd">
<svg version="1.0" xmlns="http://www.w3.org/2000/svg"
 width="530.000000pt" height="530.000000pt" viewBox="0 0 530.000000 530.000000"
 preserveAspectRatio="xMidYMid meet">
<metadata>
Created by potrace 1.11, written by Peter Selinger 2001-2013
</metadata>
<g transform="translate(0.000000,530.000000) scale(0.100000,-0.100000)"
fill="#000000" stroke="none">
<path d="M2170 4663 c-369 -26 -740 -109 -879 -197 -51 -32 -94 -91 -110 -148
-9 -32 -11 -449 -9 -1703 3 -1510 5 -1664 20 -1706 56 -157 137 -219 323 -249
136 -22 449 -10 595 23 l55 12 3 618 2 617 233 0 c361 0 596 21 767 67 199 53
376 129 514 220 86 58 240 204 307 293 86 115 159 272 198 429 31 123 42 216
42 361 -1 499 -214 883 -624 1124 -284 167 -675 248 -1177 244 -118 -1 -235
-3 -260 -5z m645 -830 c208 -59 332 -177 380 -363 21 -80 24 -253 5 -330 -32
-135 -102 -233 -220 -309 -131 -85 -268 -111 -582 -111 l-228 0 0 559 0 560
58 6 c31 3 64 8 72 10 8 2 112 2 230 1 178 -3 227 -7 285 -23z"/>
</g>
</svg>
